<svg xmlns="http://www.w3.org/2000/svg" viewBox="0 0 226 226"><defs><style>.cls-1{fill:#007eb6;}.cls-2{fill:#fff;}.cls-3{fill:aqua;}</style></defs><g id="Ebene_2" data-name="Ebene 2"><g id="Ebene_1-2" data-name="Ebene 1"><circle class="cls-1" cx="113" cy="113" r="106.5"/><path d="M113,13A100,100,0,1,1,13,113,100,100,0,0,1,113,13m0-13A113,113,0,0,0,33.1,192.9,113,113,0,1,0,192.9,33.1,112.23,112.23,0,0,0,113,0Z"/><path class="cls-2" d="M145.2,62.59a11.1,11.1,0,0,1,7.91,3.25l13,13a11.19,11.19,0,0,1,0,15.81l-60,60a11.24,11.24,0,0,1-15.81,0l-13-13a11.21,11.21,0,0,1,0-15.81l60-59.95a11.06,11.06,0,0,1,7.9-3.25m0-8a19.12,19.12,0,0,0-13.56,5.59l-59.95,60a19.23,19.23,0,0,0,0,27.12l13,13a19.22,19.22,0,0,0,27.12,0l60-59.95a19.23,19.23,0,0,0,0-27.12l-13-13a19.1,19.1,0,0,0-13.56-5.59Z"/><rect class="cls-3" x="70" y="103.69" width="85.99" height="7.33" rx="2.97" transform="translate(-42.82 111.34) rotate(-45)"/><path class="cls-2" d="M140.81,75.59a3,3,0,0,0-2.1.87L82.1,133.07a3,3,0,0,0,0,4.19l1,1a3,3,0,0,0,4.19,0L143.9,81.64a3,3,0,0,0,0-4.19l-1-1a3,3,0,0,0-2.1-.87Z"/><path class="cls-2" d="M62.91,145.62a2.76,2.76,0,0,0-4.48.85,5.26,5.26,0,0,0-.43,2.1v15.35A8.08,8.08,0,0,0,66.08,172H81.81a5.35,5.35,0,0,0,1.56-.23,2.75,2.75,0,0,0,1.11-4.58Z"/></g></g></svg>