<?xml version="1.0" encoding="UTF-8" standalone="no"?>
<!DOCTYPE svg PUBLIC "-//W3C//DTD SVG 1.1//EN" "http://www.w3.org/Graphics/SVG/1.1/DTD/svg11.dtd">
<svg width="100%" height="100%" viewBox="0 0 196 197" version="1.1" xmlns="http://www.w3.org/2000/svg" xmlns:xlink="http://www.w3.org/1999/xlink" xml:space="preserve" xmlns:serif="http://www.serif.com/" style="fill-rule:evenodd;clip-rule:evenodd;stroke-linejoin:round;stroke-miterlimit:2;">
    <g transform="matrix(1,0,0,1,-5959.88,-1416)">
        <g id="ArtBoard2" transform="matrix(0.174854,0,0,1.06338,4963.21,246.277)">
            <rect x="5700" y="1100" width="1120" height="185" style="fill:none;"/>
            <g transform="matrix(7.23548,0,0,1.20472,-40645.8,-241.233)">
                <g transform="matrix(5.21627e-17,0.841289,-0.467567,2.82742e-17,7054.09,-4458.09)">
                    <path d="M6739.69,1221.94C6739.69,1209.06 6733.95,1198.59 6726.88,1198.59L6655.85,1198.59C6648.78,1198.59 6643.03,1209.06 6643.03,1221.94C6643.03,1234.83 6648.78,1245.29 6655.85,1245.29L6726.88,1245.29C6733.95,1245.29 6739.69,1234.83 6739.69,1221.94Z" style="fill:rgb(229,0,75);"/>
                </g>
                <g transform="matrix(0.790419,0,0,0.780591,1694.37,15.3187)">
                    <circle cx="6058.03" cy="1567.6" r="13.58" style="fill:rgb(229,0,75);"/>
                </g>
            </g>
        </g>
    </g>
</svg>
