<svg xmlns="http://www.w3.org/2000/svg" viewBox="0 0 226 226"><defs><style>.cls-1{fill:#999;}</style></defs><g id="Ebene_2" data-name="Ebene 2"><g id="Ebene_1-2" data-name="Ebene 1"><circle class="cls-1" cx="113" cy="113" r="106.5"/><path d="M113,13A100,100,0,1,1,13,113,100,100,0,0,1,113,13m0-13A113,113,0,0,0,33.1,192.9,113,113,0,1,0,192.9,33.1,112.23,112.23,0,0,0,113,0Z"/><path d="M165.79,96.55c0-.63,0-1.25,0-1.88a52.28,52.28,0,0,0-104.56,0c0,.53,0,1,0,1.57A25,25,0,0,0,42.41,120.4v38.32A25,25,0,0,0,67.3,183.61h91.4a25,25,0,0,0,24.89-24.89V120.4A25,25,0,0,0,165.79,96.55ZM113.55,60.11a34.56,34.56,0,0,1,34.56,34.56c0,.28,0,.56,0,.84H79c0-.28,0-.56,0-.84A34.56,34.56,0,0,1,113.55,60.11Zm8.38,84.61a8.11,8.11,0,0,1,.09,1.21v18a9,9,0,1,1-18,0v-18a9.2,9.2,0,0,1,.16-1.68,21.22,21.22,0,1,1,17.79.47Z"/></g></g></svg>