<svg xmlns="http://www.w3.org/2000/svg" viewBox="0 0 200 200"><defs><style>.cls-1{fill:#999;}.cls-2{fill:#fff;}.cls-3{fill:#4d4d4d;}</style></defs><g id="Ebene_2" data-name="Ebene 2"><g id="Ebene_1-2" data-name="Ebene 1"><circle class="cls-1" cx="100" cy="100" r="100"/><path class="cls-2" d="M56.45,162A24.48,24.48,0,0,1,32,137.55v-36.1A24.43,24.43,0,0,1,49.78,77.93c0-.24,0-.48,0-.72a50.25,50.25,0,0,1,100.5,0c0,.35,0,.7,0,1.05A24.64,24.64,0,0,1,167,101.45v36.1A24.48,24.48,0,0,1,142.55,162ZM100,87a19,19,0,0,0-8.4,36l.68.34-.15.74a8.58,8.58,0,0,0-.13,1.4v17a7.5,7.5,0,0,0,15,0v-17a6.35,6.35,0,0,0-.08-1l-.1-.75.7-.3A19,19,0,0,0,100,87Zm31.57-10a31.56,31.56,0,0,0-63.11,0Z"/><path class="cls-3" d="M100,28a49.25,49.25,0,0,1,49.25,49.25c0,.59,0,1.18,0,1.77A23.54,23.54,0,0,1,166,101.45v36.1A23.52,23.52,0,0,1,142.55,161H56.45A23.52,23.52,0,0,1,33,137.55v-36.1A23.56,23.56,0,0,1,50.81,78.69c0-.49,0-1,0-1.48A49.25,49.25,0,0,1,100,28M67.48,78h65.07c0-.26,0-.53,0-.79a32.56,32.56,0,1,0-65.11,0c0,.26,0,.53,0,.79m32,73a8.51,8.51,0,0,0,8.5-8.5v-17a8.35,8.35,0,0,0-.08-1.13,20,20,0,1,0-16.77-.45A9.1,9.1,0,0,0,91,125.5v17a8.51,8.51,0,0,0,8.5,8.5M100,26A51.3,51.3,0,0,0,48.77,77.19,25.44,25.44,0,0,0,31,101.45v36.1A25.48,25.48,0,0,0,56.45,163h86.1A25.48,25.48,0,0,0,168,137.55v-36.1a25.66,25.66,0,0,0-16.73-23.9v-.34A51.31,51.31,0,0,0,100,26ZM69.49,76a30.55,30.55,0,0,1,61.06,0Zm30,73a6.51,6.51,0,0,1-6.5-6.5v-17a6.36,6.36,0,0,1,.12-1.21l.28-1.49L92,122.12a18,18,0,1,1,15.08.41l-1.39.6.2,1.5a5.93,5.93,0,0,1,.07.87v17a6.51,6.51,0,0,1-6.5,6.5Z"/></g></g></svg>