<svg xmlns="http://www.w3.org/2000/svg" viewBox="0 0 226 226"><defs><style>.cls-1{fill:#999;}</style></defs><g id="Ebene_2" data-name="Ebene 2"><g id="Ebene_1-2" data-name="Ebene 1"><circle class="cls-1" cx="113" cy="113" r="106.5"/><path d="M113,13A100,100,0,1,1,13,113,100,100,0,0,1,113,13m0-13A113,113,0,0,0,33.1,192.9,113,113,0,1,0,192.9,33.1,112.23,112.23,0,0,0,113,0Z"/><path d="M70,173A24.48,24.48,0,0,1,45.5,148.55V112.46A24.53,24.53,0,0,1,62.76,89.1c0-1.46,0-2.92.11-4.36C64.58,59.43,85.81,38.89,111.19,38c.6,0,1.21,0,1.81,0a50.1,50.1,0,0,1,17,3,9.09,9.09,0,0,1,6,8.53v3.93a6.85,6.85,0,0,1-6.82,6.87,6.63,6.63,0,0,1-2.82-.63,31.2,31.2,0,0,0-13.36-3c-.85,0-1.72,0-2.58.1A31.75,31.75,0,0,0,81.57,85.41c-.08.86-.12,1.73-.12,2.6h74.6a24.47,24.47,0,0,1,24.45,24.45v36.09A24.48,24.48,0,0,1,156.05,173ZM113.5,98a19,19,0,0,0-8.4,36l.68.34-.14.75a7.47,7.47,0,0,0-.14,1.4v17a7.5,7.5,0,0,0,15,0v-17a6.47,6.47,0,0,0-.08-1l-.1-.75.7-.3A19,19,0,0,0,113.5,98Z"/><path d="M113,39a49.15,49.15,0,0,1,16.66,2.9A8.06,8.06,0,0,1,135,49.45v3.93a5.87,5.87,0,0,1-5.82,5.87,5.65,5.65,0,0,1-2.4-.54A32.37,32.37,0,0,0,113,55.66c-.88,0-1.76,0-2.65.1A32.47,32.47,0,0,0,80.46,89h75.59a23.52,23.52,0,0,1,23.45,23.45v36.09A23.52,23.52,0,0,1,156.05,172H70A23.52,23.52,0,0,1,46.5,148.55V112.46A23.54,23.54,0,0,1,63.78,89.84a47,47,0,0,1,.09-5A49.44,49.44,0,0,1,111.22,39L113,39m0,123a8.51,8.51,0,0,0,8.5-8.5v-17a8.5,8.5,0,0,0-.08-1.14,20,20,0,1,0-16.77-.45,9.22,9.22,0,0,0-.15,1.59v17A8.51,8.51,0,0,0,113,162m0-125h0c-.61,0-1.23,0-1.85,0A51.42,51.42,0,0,0,61.87,84.67c-.08,1.22-.12,2.46-.12,3.7A25.54,25.54,0,0,0,44.5,112.46v36.09A25.49,25.49,0,0,0,70,174h86.1a25.49,25.49,0,0,0,25.45-25.46V112.46A25.48,25.48,0,0,0,156.05,87H82.47c0-.51,0-1,.09-1.52A30.76,30.76,0,0,1,110.5,57.76c.83-.07,1.67-.1,2.5-.1a30.27,30.27,0,0,1,12.93,2.86,7.55,7.55,0,0,0,3.25.73A7.85,7.85,0,0,0,137,53.38V49.45A10.1,10.1,0,0,0,130.34,40,51.11,51.11,0,0,0,113,37Zm0,123a6.51,6.51,0,0,1-6.5-6.5v-17a6.54,6.54,0,0,1,.12-1.22l.28-1.49-1.36-.67a18,18,0,1,1,15.08.4l-1.39.6.2,1.51a5.83,5.83,0,0,1,.07.87v17A6.51,6.51,0,0,1,113,160Z"/></g></g></svg>