<svg xmlns="http://www.w3.org/2000/svg" viewBox="0 0 200 200"><defs><style>.cls-1{fill:#999;}.cls-2{fill:#fff;}.cls-3{fill:#4d4d4d;}</style></defs><g id="Ebene_2" data-name="Ebene 2"><g id="Ebene_1-2" data-name="Ebene 1"><circle class="cls-1" cx="100" cy="100" r="100"/><path class="cls-2" d="M57,160A24.48,24.48,0,0,1,32.5,135.55V99.46A24.53,24.53,0,0,1,49.76,76.1c0-1.46,0-2.92.11-4.36C51.58,46.43,72.81,25.89,98.19,25c.6,0,1.21,0,1.81,0a50.1,50.1,0,0,1,17,3,9.09,9.09,0,0,1,6,8.53v3.93a6.85,6.85,0,0,1-6.82,6.87,6.63,6.63,0,0,1-2.82-.63,31.2,31.2,0,0,0-13.36-3c-.85,0-1.72,0-2.58.1A31.76,31.76,0,0,0,68.57,72.41c-.08.85-.12,1.73-.12,2.6h74.6A24.47,24.47,0,0,1,167.5,99.46v36.09A24.48,24.48,0,0,1,143.05,160ZM100.5,85a19,19,0,0,0-8.4,36l.68.33-.15.75a8.38,8.38,0,0,0-.13,1.4v17a7.5,7.5,0,0,0,15,0v-17a6.47,6.47,0,0,0-.08-1l-.1-.75.7-.3A19,19,0,0,0,100.5,85Z"/><path class="cls-3" d="M100,26a49.15,49.15,0,0,1,16.66,2.9A8.06,8.06,0,0,1,122,36.45v3.93a5.87,5.87,0,0,1-5.82,5.87,5.65,5.65,0,0,1-2.4-.54A32.37,32.37,0,0,0,100,42.66c-.88,0-1.76,0-2.65.1A32.47,32.47,0,0,0,67.46,76h75.59A23.52,23.52,0,0,1,166.5,99.46v36.09A23.52,23.52,0,0,1,143.05,159H57A23.52,23.52,0,0,1,33.5,135.55V99.46A23.54,23.54,0,0,1,50.78,76.84a47,47,0,0,1,.09-5A49.44,49.44,0,0,1,98.22,26L100,26m0,123a8.51,8.51,0,0,0,8.5-8.5v-17a8.5,8.5,0,0,0-.08-1.14,20,20,0,1,0-16.77-.45,9.22,9.22,0,0,0-.15,1.59v17A8.51,8.51,0,0,0,100,149m0-125h0c-.61,0-1.23,0-1.85,0A51.42,51.42,0,0,0,48.87,71.67c-.08,1.22-.12,2.46-.12,3.7A25.54,25.54,0,0,0,31.5,99.46v36.09A25.49,25.49,0,0,0,57,161h86.1a25.49,25.49,0,0,0,25.45-25.46V99.46A25.48,25.48,0,0,0,143.05,74H69.47c0-.51,0-1,.09-1.52A30.76,30.76,0,0,1,97.5,44.76c.83-.07,1.67-.1,2.5-.1a30.27,30.27,0,0,1,12.93,2.86,7.55,7.55,0,0,0,3.25.73A7.85,7.85,0,0,0,124,40.38V36.45A10.1,10.1,0,0,0,117.34,27,51.11,51.11,0,0,0,100,24Zm0,123a6.51,6.51,0,0,1-6.5-6.5v-17a6.54,6.54,0,0,1,.12-1.22l.28-1.49-1.36-.67a18,18,0,1,1,15.08.4l-1.39.6.2,1.51a5.83,5.83,0,0,1,.07.87v17A6.51,6.51,0,0,1,100,147Z"/></g></g></svg>